<mxfile host="Electron" agent="Mozilla/5.0 (Windows NT 10.0; Win64; x64) AppleWebKit/537.36 (KHTML, like Gecko) draw.io/26.0.9 Chrome/128.0.6613.186 Electron/32.2.5 Safari/537.36" version="26.0.9">
  <diagram id="C5RBs43oDa-KdzZeNtuy" name="Page-1">
    <mxGraphModel dx="778" dy="460" grid="1" gridSize="10" guides="1" tooltips="1" connect="1" arrows="1" fold="1" page="1" pageScale="1" pageWidth="827" pageHeight="1169" math="0" shadow="0">
      <root>
        <mxCell id="WIyWlLk6GJQsqaUBKTNV-0" />
        <mxCell id="WIyWlLk6GJQsqaUBKTNV-1" parent="WIyWlLk6GJQsqaUBKTNV-0" />
        <mxCell id="jXiwWkqM8kZw05CcmDru-11" style="edgeStyle=orthogonalEdgeStyle;rounded=0;orthogonalLoop=1;jettySize=auto;html=1;exitX=0.5;exitY=1;exitDx=0;exitDy=0;entryX=0.5;entryY=0;entryDx=0;entryDy=0;" edge="1" parent="WIyWlLk6GJQsqaUBKTNV-1" source="jXiwWkqM8kZw05CcmDru-0" target="jXiwWkqM8kZw05CcmDru-2">
          <mxGeometry relative="1" as="geometry" />
        </mxCell>
        <mxCell id="jXiwWkqM8kZw05CcmDru-0" value="начало" style="rounded=1;whiteSpace=wrap;html=1;arcSize=50;" vertex="1" parent="WIyWlLk6GJQsqaUBKTNV-1">
          <mxGeometry x="355" y="260" width="120" height="20" as="geometry" />
        </mxCell>
        <mxCell id="jXiwWkqM8kZw05CcmDru-1" value="конец" style="rounded=1;whiteSpace=wrap;html=1;arcSize=50;" vertex="1" parent="WIyWlLk6GJQsqaUBKTNV-1">
          <mxGeometry x="502.5" y="850" width="120" height="20" as="geometry" />
        </mxCell>
        <mxCell id="jXiwWkqM8kZw05CcmDru-12" style="edgeStyle=orthogonalEdgeStyle;rounded=0;orthogonalLoop=1;jettySize=auto;html=1;exitX=0.5;exitY=1;exitDx=0;exitDy=0;entryX=0.5;entryY=0;entryDx=0;entryDy=0;" edge="1" parent="WIyWlLk6GJQsqaUBKTNV-1" source="jXiwWkqM8kZw05CcmDru-2" target="jXiwWkqM8kZw05CcmDru-5">
          <mxGeometry relative="1" as="geometry" />
        </mxCell>
        <mxCell id="jXiwWkqM8kZw05CcmDru-2" value="заполнить массив arr" style="rounded=0;whiteSpace=wrap;html=1;" vertex="1" parent="WIyWlLk6GJQsqaUBKTNV-1">
          <mxGeometry x="349" y="310" width="130" height="20" as="geometry" />
        </mxCell>
        <mxCell id="jXiwWkqM8kZw05CcmDru-16" style="edgeStyle=orthogonalEdgeStyle;rounded=0;orthogonalLoop=1;jettySize=auto;html=1;exitX=0.5;exitY=1;exitDx=0;exitDy=0;entryX=0.5;entryY=0;entryDx=0;entryDy=0;" edge="1" parent="WIyWlLk6GJQsqaUBKTNV-1" source="jXiwWkqM8kZw05CcmDru-3" target="jXiwWkqM8kZw05CcmDru-10">
          <mxGeometry relative="1" as="geometry" />
        </mxCell>
        <mxCell id="jXiwWkqM8kZw05CcmDru-33" value="да" style="edgeLabel;html=1;align=center;verticalAlign=middle;resizable=0;points=[];" vertex="1" connectable="0" parent="jXiwWkqM8kZw05CcmDru-16">
          <mxGeometry x="-0.4321" y="1" relative="1" as="geometry">
            <mxPoint as="offset" />
          </mxGeometry>
        </mxCell>
        <mxCell id="jXiwWkqM8kZw05CcmDru-31" style="edgeStyle=orthogonalEdgeStyle;rounded=0;orthogonalLoop=1;jettySize=auto;html=1;exitX=0;exitY=0.5;exitDx=0;exitDy=0;entryX=0;entryY=0.5;entryDx=0;entryDy=0;" edge="1" parent="WIyWlLk6GJQsqaUBKTNV-1" source="jXiwWkqM8kZw05CcmDru-3" target="jXiwWkqM8kZw05CcmDru-7">
          <mxGeometry relative="1" as="geometry" />
        </mxCell>
        <mxCell id="jXiwWkqM8kZw05CcmDru-32" value="нет" style="edgeLabel;html=1;align=center;verticalAlign=middle;resizable=0;points=[];" vertex="1" connectable="0" parent="jXiwWkqM8kZw05CcmDru-31">
          <mxGeometry x="-0.8572" y="2" relative="1" as="geometry">
            <mxPoint as="offset" />
          </mxGeometry>
        </mxCell>
        <mxCell id="jXiwWkqM8kZw05CcmDru-3" value="&lt;div&gt;&lt;span style=&quot;background-color: transparent; color: light-dark(rgb(0, 0, 0), rgb(255, 255, 255));&quot;&gt;arr[j] &amp;lt; arr[j + 1]&lt;/span&gt;&lt;/div&gt;" style="rhombus;whiteSpace=wrap;html=1;" vertex="1" parent="WIyWlLk6GJQsqaUBKTNV-1">
          <mxGeometry x="345" y="520" width="140" height="50" as="geometry" />
        </mxCell>
        <mxCell id="jXiwWkqM8kZw05CcmDru-20" style="edgeStyle=orthogonalEdgeStyle;rounded=0;orthogonalLoop=1;jettySize=auto;html=1;exitX=0.5;exitY=1;exitDx=0;exitDy=0;entryX=0.5;entryY=0;entryDx=0;entryDy=0;" edge="1" parent="WIyWlLk6GJQsqaUBKTNV-1" source="jXiwWkqM8kZw05CcmDru-5" target="jXiwWkqM8kZw05CcmDru-6">
          <mxGeometry relative="1" as="geometry" />
        </mxCell>
        <mxCell id="jXiwWkqM8kZw05CcmDru-26" style="edgeStyle=orthogonalEdgeStyle;rounded=0;orthogonalLoop=1;jettySize=auto;html=1;exitX=1;exitY=0.5;exitDx=0;exitDy=0;" edge="1" parent="WIyWlLk6GJQsqaUBKTNV-1" source="jXiwWkqM8kZw05CcmDru-5" target="jXiwWkqM8kZw05CcmDru-23">
          <mxGeometry relative="1" as="geometry" />
        </mxCell>
        <mxCell id="jXiwWkqM8kZw05CcmDru-5" value="&lt;div&gt;int i = 0; i &amp;lt; size(arr); i++&lt;/div&gt;" style="shape=hexagon;perimeter=hexagonPerimeter2;whiteSpace=wrap;html=1;fixedSize=1;" vertex="1" parent="WIyWlLk6GJQsqaUBKTNV-1">
          <mxGeometry x="326" y="360" width="176" height="30" as="geometry" />
        </mxCell>
        <mxCell id="jXiwWkqM8kZw05CcmDru-14" style="edgeStyle=orthogonalEdgeStyle;rounded=0;orthogonalLoop=1;jettySize=auto;html=1;exitX=0.5;exitY=1;exitDx=0;exitDy=0;entryX=0.5;entryY=0;entryDx=0;entryDy=0;" edge="1" parent="WIyWlLk6GJQsqaUBKTNV-1" source="jXiwWkqM8kZw05CcmDru-6" target="jXiwWkqM8kZw05CcmDru-7">
          <mxGeometry relative="1" as="geometry" />
        </mxCell>
        <mxCell id="jXiwWkqM8kZw05CcmDru-6" value="notSorted = false" style="rounded=0;whiteSpace=wrap;html=1;" vertex="1" parent="WIyWlLk6GJQsqaUBKTNV-1">
          <mxGeometry x="355" y="420" width="120" height="20" as="geometry" />
        </mxCell>
        <mxCell id="jXiwWkqM8kZw05CcmDru-18" style="edgeStyle=orthogonalEdgeStyle;rounded=0;orthogonalLoop=1;jettySize=auto;html=1;exitX=0.5;exitY=1;exitDx=0;exitDy=0;entryX=0.5;entryY=0;entryDx=0;entryDy=0;" edge="1" parent="WIyWlLk6GJQsqaUBKTNV-1" source="jXiwWkqM8kZw05CcmDru-7" target="jXiwWkqM8kZw05CcmDru-3">
          <mxGeometry relative="1" as="geometry" />
        </mxCell>
        <mxCell id="jXiwWkqM8kZw05CcmDru-21" style="edgeStyle=orthogonalEdgeStyle;rounded=0;orthogonalLoop=1;jettySize=auto;html=1;exitX=1;exitY=0.5;exitDx=0;exitDy=0;entryX=0.5;entryY=0;entryDx=0;entryDy=0;" edge="1" parent="WIyWlLk6GJQsqaUBKTNV-1" source="jXiwWkqM8kZw05CcmDru-7" target="jXiwWkqM8kZw05CcmDru-8">
          <mxGeometry relative="1" as="geometry">
            <Array as="points">
              <mxPoint x="530" y="485" />
              <mxPoint x="530" y="660" />
            </Array>
          </mxGeometry>
        </mxCell>
        <mxCell id="jXiwWkqM8kZw05CcmDru-7" value="int j = 0; j &amp;lt; size(arr) - 1; j++" style="shape=hexagon;perimeter=hexagonPerimeter2;whiteSpace=wrap;html=1;fixedSize=1;" vertex="1" parent="WIyWlLk6GJQsqaUBKTNV-1">
          <mxGeometry x="320" y="470" width="190" height="30" as="geometry" />
        </mxCell>
        <mxCell id="jXiwWkqM8kZw05CcmDru-24" style="edgeStyle=orthogonalEdgeStyle;rounded=0;orthogonalLoop=1;jettySize=auto;html=1;entryX=0;entryY=0.5;entryDx=0;entryDy=0;" edge="1" parent="WIyWlLk6GJQsqaUBKTNV-1" source="jXiwWkqM8kZw05CcmDru-8" target="jXiwWkqM8kZw05CcmDru-5">
          <mxGeometry relative="1" as="geometry">
            <mxPoint x="240" y="400" as="targetPoint" />
            <Array as="points">
              <mxPoint x="250" y="720" />
              <mxPoint x="250" y="375" />
            </Array>
          </mxGeometry>
        </mxCell>
        <mxCell id="jXiwWkqM8kZw05CcmDru-29" value="нет" style="edgeLabel;html=1;align=center;verticalAlign=middle;resizable=0;points=[];" vertex="1" connectable="0" parent="jXiwWkqM8kZw05CcmDru-24">
          <mxGeometry x="-0.9529" y="-1" relative="1" as="geometry">
            <mxPoint as="offset" />
          </mxGeometry>
        </mxCell>
        <mxCell id="jXiwWkqM8kZw05CcmDru-25" style="edgeStyle=orthogonalEdgeStyle;rounded=0;orthogonalLoop=1;jettySize=auto;html=1;exitX=1;exitY=0.5;exitDx=0;exitDy=0;" edge="1" parent="WIyWlLk6GJQsqaUBKTNV-1" source="jXiwWkqM8kZw05CcmDru-8" target="jXiwWkqM8kZw05CcmDru-23">
          <mxGeometry relative="1" as="geometry" />
        </mxCell>
        <mxCell id="jXiwWkqM8kZw05CcmDru-30" value="да" style="edgeLabel;html=1;align=center;verticalAlign=middle;resizable=0;points=[];" vertex="1" connectable="0" parent="jXiwWkqM8kZw05CcmDru-25">
          <mxGeometry x="-0.7061" y="-1" relative="1" as="geometry">
            <mxPoint as="offset" />
          </mxGeometry>
        </mxCell>
        <mxCell id="jXiwWkqM8kZw05CcmDru-8" value="&lt;div&gt;&amp;nbsp;if (notSorted == false)&lt;/div&gt;" style="rhombus;whiteSpace=wrap;html=1;" vertex="1" parent="WIyWlLk6GJQsqaUBKTNV-1">
          <mxGeometry x="299" y="680" width="230" height="80" as="geometry" />
        </mxCell>
        <mxCell id="jXiwWkqM8kZw05CcmDru-19" style="edgeStyle=orthogonalEdgeStyle;rounded=0;orthogonalLoop=1;jettySize=auto;html=1;exitX=0;exitY=0.5;exitDx=0;exitDy=0;entryX=0;entryY=0.5;entryDx=0;entryDy=0;" edge="1" parent="WIyWlLk6GJQsqaUBKTNV-1" source="jXiwWkqM8kZw05CcmDru-10" target="jXiwWkqM8kZw05CcmDru-7">
          <mxGeometry relative="1" as="geometry" />
        </mxCell>
        <mxCell id="jXiwWkqM8kZw05CcmDru-10" value="&lt;div&gt;swap(arr[j], arr[j + 1])&lt;/div&gt;&lt;div&gt;&lt;span style=&quot;background-color: transparent; color: light-dark(rgb(0, 0, 0), rgb(255, 255, 255));&quot;&gt;notSorted = true&lt;/span&gt;&lt;/div&gt;" style="rounded=0;whiteSpace=wrap;html=1;" vertex="1" parent="WIyWlLk6GJQsqaUBKTNV-1">
          <mxGeometry x="345" y="600" width="140" height="35" as="geometry" />
        </mxCell>
        <mxCell id="jXiwWkqM8kZw05CcmDru-27" style="edgeStyle=orthogonalEdgeStyle;rounded=0;orthogonalLoop=1;jettySize=auto;html=1;exitX=0.5;exitY=1;exitDx=0;exitDy=0;entryX=0.5;entryY=0;entryDx=0;entryDy=0;" edge="1" parent="WIyWlLk6GJQsqaUBKTNV-1" source="jXiwWkqM8kZw05CcmDru-23" target="jXiwWkqM8kZw05CcmDru-1">
          <mxGeometry relative="1" as="geometry" />
        </mxCell>
        <mxCell id="jXiwWkqM8kZw05CcmDru-23" value="вывод массива arr" style="shape=parallelogram;perimeter=parallelogramPerimeter;whiteSpace=wrap;html=1;fixedSize=1;" vertex="1" parent="WIyWlLk6GJQsqaUBKTNV-1">
          <mxGeometry x="480" y="780" width="165" height="20" as="geometry" />
        </mxCell>
      </root>
    </mxGraphModel>
  </diagram>
</mxfile>
